<svg xmlns="http://www.w3.org/2000/svg" viewBox="0 0 12 12" height="12" width="12">
	<g class="nc-icon-wrapper js-transition-icon" data-effect="scale" data-event="click">
		<g class="js-transition-icon__state open">
			<path d="M11,9H1a1,1,0,0,0,0,2H11a1,1,0,0,0,0-2Z"></path>
			<path d="M11,1H1A1,1,0,0,0,1,3H11a1,1,0,0,0,0-2Z"></path>
			<path d="M11,5H1A1,1,0,0,0,1,7H11a1,1,0,0,0,0-2Z" data-color="color-2"></path>
		</g>
		<g class="js-transition-icon__state closed">
			<path
				d="M10.707,1.293a1,1,0,0,0-1.414,0L6,4.586,2.707,1.293A1,1,0,0,0,1.293,2.707L4.586,6,1.293,9.293a1,1,0,1,0,1.414,1.414L6,7.414l3.293,3.293a1,1,0,0,0,1.414-1.414L7.414,6l3.293-3.293A1,1,0,0,0,10.707,1.293Z"
			></path>
		</g>
	</g>
</svg>
